<svg xmlns="http://www.w3.org/2000/svg" viewBox="0 0 60.05 55.77"><defs><style>.cls-1{fill:#ffc107;}</style></defs><title>Asset 9</title><g id="Layer_2" data-name="Layer 2"><g id="Layer_8" data-name="Layer 8"><path class="cls-1" d="M11.47,55.77c1.64-4.77,3.22-9.39,4.8-14,.77-2.24,1.53-4.48,2.32-6.7a.73.73,0,0,0-.33-1Q9.36,27.87.5,21.67L0,21.3H.84c7.16,0,14.32,0,21.48,0a.76.76,0,0,0,.88-.63q3.27-10,6.59-20c.06-.18.14-.35.26-.67.61,1.82,1.17,3.5,1.72,5.18Q34.35,13,36.9,20.75a.68.68,0,0,0,.79.56c7.16,0,14.32,0,21.48,0h.88c-.3.23-.49.38-.7.52Q50.62,27.93,41.87,34a.8.8,0,0,0-.38,1.12c2.37,6.82,4.71,13.65,7.1,20.59a5.07,5.07,0,0,1-.49-.3q-8.76-6.24-17.51-12.49a.78.78,0,0,0-1.1,0Q20.75,49.19,12,55.42Z"/></g></g></svg>